<svg width="184" height="57" viewBox="0 0 184 57" fill="none" xmlns="http://www.w3.org/2000/svg">
<path d="M179.5 0.584412H4.5C2.567 0.584412 1 2.15142 1 4.08441V52.0844C1 54.0174 2.567 55.5844 4.5 55.5844H179.5C181.433 55.5844 183 54.0174 183 52.0844V4.08441C183 2.15142 181.433 0.584412 179.5 0.584412Z" fill="white"/>
<g clip-path="url(#clip0_1007_16)">
<path d="M89.6673 26.316V32.9819C88.732 32.0041 87.2709 31.4174 85.5719 31.4174C82.2181 31.4174 79.7553 33.9094 79.7553 37.7145C79.7553 41.5196 82.2181 44.0116 85.5719 44.0116C87.2765 44.0116 88.7431 43.4193 89.6784 42.4248V44.0116H92.3459V41.1899V26.316H89.6673ZM86.0534 41.5196C83.9227 41.5196 82.4395 39.9551 82.4395 37.7145C82.4395 35.4683 83.9227 33.9038 86.0534 33.9038C88.1841 33.9038 89.6673 35.4683 89.6673 37.7145C89.6673 39.9607 88.1785 41.5196 86.0534 41.5196Z" fill="#006884"/>
<path d="M59.7598 33.9541V41.2011C57.8947 43.1064 55.6921 44.006 52.936 44.006C47.7171 44.0116 44.2692 40.4971 44.2692 35.1275C44.2692 29.9031 47.8831 26.2433 53.1241 26.2433C55.5205 26.2433 57.6955 27.1485 59.3503 28.8806L57.5571 30.7133C56.4337 29.5679 54.7291 28.8806 53.102 28.8806C49.5379 28.8806 47.0696 31.395 47.0696 35.1275C47.0696 38.9326 49.3663 41.3743 52.936 41.3743C54.6129 41.3743 55.9743 40.9329 57.1753 39.983V36.4685H52.4822V33.9541H59.7598Z" fill="#006884"/>
<path d="M70.5905 31.7079V38.0553C70.5905 40.0836 69.2733 41.5475 67.3086 41.5475C65.5875 41.5475 64.5304 40.3294 64.5304 38.2062V31.7079H61.8463V38.3738C61.8463 41.8157 63.8109 44.0116 66.8271 44.0116C68.3214 44.0116 69.6164 43.492 70.596 42.4806V44.0116H73.2636V41.1899V31.7079H70.5905Z" fill="#006884"/>
<path d="M106.243 38.6811H96.8121C97.0279 40.4356 98.4613 41.5531 100.537 41.5531C101.87 41.5531 103.21 41.067 103.924 40.3127L105.545 41.9163C104.378 43.207 102.49 44.0116 100.465 44.0116C96.5741 44.0116 94.0671 41.5028 94.0671 37.6586C94.0671 33.9373 96.5243 31.4062 100.177 31.4062C104.333 31.4062 106.624 34.1776 106.243 38.6811ZM96.8398 36.5635H103.691C103.498 34.8593 102.214 33.7641 100.254 33.7641C98.3894 33.7641 97.1718 34.7866 96.8398 36.5635Z" fill="#006884"/>
<path d="M78.0452 31.7079H75.3666V44.006H78.0452V31.7079Z" fill="#006884"/>
<path d="M78.3164 29.0091C78.3164 29.9087 77.5969 30.6351 76.7059 30.6351C75.8149 30.6351 75.0954 29.9087 75.0954 29.0091C75.0954 28.1096 75.8149 27.3832 76.7059 27.3832C77.5969 27.3832 78.3164 28.1096 78.3164 29.0091Z" fill="#006884"/>
<path d="M119.719 22.6059C119.719 22.6059 119.088 23.5837 120.078 24.1424C120.305 24.2709 120.576 24.2765 120.82 24.1815L137.135 17.5492C139.26 16.6496 139.532 15.7221 139.709 14.9342C139.792 14.5599 139.62 14.1799 139.244 14.1073C138.342 13.9396 136.825 13.8111 135.696 14.3643L131.468 16.4428L122.635 12.4198C122.408 12.2857 122.121 12.3919 122.026 12.6377L121.86 13.0847C121.805 13.2412 121.838 13.4088 121.949 13.5318L126.382 18.8064C126.382 18.8064 121.971 21.0023 121.888 21.0525L118.745 19.1807C118.54 19.0634 118.285 19.1304 118.163 19.3316L117.942 19.7171C117.854 19.8624 117.865 20.0468 117.964 20.1865L119.719 22.6059Z" fill="#006884"/>
<path d="M133.294 30.6966C133.488 29.4841 133.554 28.2492 133.488 27.0256L131.374 27.1429C131.512 29.6294 131.02 32.1437 129.952 34.4067C129.514 35.3286 128.994 36.1891 128.408 36.9769C124.412 35.9377 119.591 34.1105 114.749 31.7806C109.879 29.4338 105.457 26.8244 102.147 24.3436C102.385 23.3769 102.723 22.4271 103.154 21.5163C105.23 17.1189 109.309 14.0067 114.074 13.1909L113.719 11.0844C109.89 11.7437 106.442 13.705 103.913 16.5602C102.623 16.2696 101.45 16.0685 100.42 15.9735C97.443 15.6885 95.6776 16.2249 95.0245 17.605C94.1501 19.4545 95.6997 21.9298 99.7508 25.1817C103.271 28.0034 108.274 31.0318 113.841 33.7082C118.39 35.8985 122.929 37.6586 126.836 38.7649C123.875 41.6313 119.846 43.14 115.762 42.9276C113.874 42.8271 111.976 42.3633 110.166 41.4916L109.253 43.4193C111.323 44.4139 113.487 44.9503 115.645 45.0621C120.737 45.3303 125.757 43.2517 129.193 39.374C130.793 39.7372 132.199 39.9495 133.394 40.011C133.643 40.0221 133.887 40.0333 134.113 40.0333C136.211 40.0333 137.545 39.4578 138.076 38.3291C138.95 36.4908 137.334 33.9262 133.294 30.6966ZM96.9339 18.5214C97.0279 18.3258 97.7972 17.8676 100.221 18.0967C100.902 18.1638 101.655 18.2755 102.468 18.432C102.014 19.1193 101.605 19.84 101.245 20.5944C100.891 21.3487 100.592 22.1197 100.349 22.9132C97.1718 20.2256 96.7955 18.8175 96.9339 18.5214ZM136.172 37.4072C136.095 37.5748 135.563 37.8933 134.119 37.8933C133.178 37.8933 131.994 37.7592 130.643 37.491C131.092 36.8093 131.507 36.0885 131.861 35.3286C132.215 34.5743 132.514 33.8032 132.758 33.0098C135.918 35.6918 136.316 37.0999 136.172 37.4072Z" fill="#FCB813"/>
<path d="M79.6667 22.8126L77.1984 16.2864L74.7357 22.8126C74.5696 23.2652 74.3095 23.7625 74.3095 23.7625H74.3593C74.8574 23.7625 75.0345 23.2149 75.1729 22.8349L75.837 21.1307L78.2223 21.1363L78.8587 22.8685C79.0248 23.3266 79.224 23.7625 80.032 23.7625H80.0818C80.0873 23.7625 79.8328 23.2652 79.6667 22.8126ZM76.0085 20.6726L77.0324 17.9794L78.0507 20.6726H76.0085Z" fill="#FCB813"/>
<path d="M67.4083 18.6387C67.4249 17.6553 66.7718 17.1357 65.9859 17.1301C65.676 17.1301 65.2665 17.1469 64.951 17.1469L64.9289 22.6506C64.9289 23.2093 64.9012 23.7625 64.143 23.7625H64.1098C64.1098 23.7625 64.1984 23.1367 64.1984 22.6506V17.728C64.1984 17.2363 64.1098 16.711 64.1098 16.711C64.1098 16.711 64.8348 16.7055 65.1945 16.711C65.5543 16.7166 65.8753 16.6887 66.2405 16.6887C67.2367 16.6887 68.1499 17.376 68.1443 18.7114C68.1388 19.7451 67.3363 20.3541 66.4121 20.5161C66.556 20.7285 67.2256 21.723 68.0004 22.9132C68.1886 23.2037 68.4875 23.5166 68.7531 23.7569C68.172 23.7681 67.7071 23.6954 67.3308 23.2428C67.2533 23.1479 67.1814 23.0473 67.1149 22.9467C66.8438 22.5556 65.3827 20.1921 65.3827 20.1921H65.9472C66.7109 20.2032 67.3917 19.5998 67.4083 18.6387Z" fill="#FCB813"/>
<path d="M54.5907 16.5099C54.6018 16.6496 54.6018 16.7893 54.6018 16.929V19.5942H57.8504V16.929C57.8504 16.3087 57.8892 15.7053 58.7193 15.7053H58.7525C58.7525 15.7053 58.6529 16.387 58.6529 16.929V22.5612C58.6529 23.1032 58.7525 23.7737 58.7525 23.7737H58.7193C57.8837 23.7737 57.8504 23.1702 57.8504 22.55V20.0915H54.6018V22.55C54.6018 23.1702 54.5631 23.7737 53.7329 23.7737H53.6997C53.6997 23.7737 53.7993 23.1032 53.7993 22.5612V16.9234C53.7993 16.3814 53.6997 15.6997 53.6997 15.6997H53.7329C54.3085 15.7053 54.5409 15.9958 54.5907 16.5099Z" fill="#FCB813"/>
<path d="M60.5512 20.4267V23.2149H63.0527C63.4955 23.2149 63.5065 23.6004 63.5065 23.6395V23.6731H59.7211C59.7211 23.6731 59.8096 23.159 59.8096 22.6673V17.7447C59.8096 17.253 59.7211 16.7278 59.7211 16.7278H63.5065V16.7613C63.5065 16.8004 63.4955 17.186 63.0527 17.186H60.5512V19.9741H62.7483V20.4323H60.5512V20.4267Z" fill="#FCB813"/>
<path d="M69.9153 16.6328C69.9153 16.6328 69.8267 17.2586 69.8267 17.7447V23.6731H69.0906V17.7447C69.0906 17.1804 69.1238 16.6328 69.882 16.6328H69.9153Z" fill="#FCB813"/>
<path d="M84.7362 17.0351C84.6753 17.1636 84.5591 17.2866 84.3377 17.2866C83.7677 17.1189 83.325 17.0686 82.7328 17.0686C81.4599 17.0686 80.6021 18.4767 80.6021 20.1977C80.6021 21.9298 81.6038 23.2596 82.7328 23.2596C83.1202 23.2596 83.5961 23.1926 83.9891 23.1479V20.6111H84.7307V22.6673C84.7307 23.159 84.8192 23.6731 84.8192 23.6731H84.7805C84.0942 23.6731 83.419 23.7234 82.7328 23.7234C81.1334 23.7234 79.7775 22.17 79.7775 20.2032C79.7775 18.2476 80.9618 16.7725 82.5612 16.6831C82.7328 16.6719 82.921 16.6719 83.1147 16.6719C83.9005 16.6719 84.8026 16.7334 84.8026 16.7334V16.7613C84.8026 16.7837 84.7971 16.9122 84.7362 17.0351Z" fill="#FCB813"/>
<path d="M86.5736 20.4267V23.2149H89.0751C89.5179 23.2149 89.5289 23.6004 89.5289 23.6395V23.6731H85.7435C85.7435 23.6731 85.832 23.159 85.832 22.6673V17.7447C85.832 17.253 85.7435 16.7278 85.7435 16.7278H89.5289V16.7613C89.5289 16.8004 89.5179 17.186 89.0751 17.186H86.5736V19.9741H88.7707V20.4323H86.5736V20.4267Z" fill="#FCB813"/>
<path d="M70.3636 16.6216C70.3636 16.6216 70.6956 16.6775 70.9447 16.6775H74.9681C75.2172 16.6775 75.5492 16.6216 75.5492 16.6216V16.6608C75.5492 17.1469 75.2172 17.1692 74.9681 17.1692C74.4479 17.158 74.3594 17.1301 73.7561 17.1301H73.3244V23.6731H72.5552V17.1245H72.1235C71.5203 17.1245 71.4705 17.158 70.9447 17.1692C70.6956 17.1692 70.3636 17.1469 70.3636 16.6552V16.6216Z" fill="#FCB813"/>
</g>
<path d="M179.5 0.584412H4.5C2.567 0.584412 1 2.15142 1 4.08441V52.0844C1 54.0174 2.567 55.5844 4.5 55.5844H179.5C181.433 55.5844 183 54.0174 183 52.0844V4.08441C183 2.15142 181.433 0.584412 179.5 0.584412Z" stroke="#E6B441"/>
<defs>
<clipPath id="clip0_1007_16">
<rect width="95.4615" height="34" fill="white" transform="translate(44.2692 11.0844)"/>
</clipPath>
</defs>
</svg>